# xmcd CD database file
#
# Track frame offsets:
#	150
#	10886
#	25646
#	38065
#	56240
#	74333
#	86563
#	101537
#	115946
#	128431
#	158733
#
# Disc length: 2317 seconds
#
# Revision: 0
# Processed by: cddbd v1.5.2PL0 Copyright (c) Steve Scherf et al.
# Submitted via: CDex 1.70beta2
#
DISCID=82090b0b
DTITLE=Sylvia Nels - Su ass et!
DYEAR=2005
DGENRE=Mundart
TTITLE0=Dat Woart Liebe - Dat Woart Liebe
TTITLE1=En - Apel
TTITLE2=De Miehler Pitter - De Miehler Pitter
TTITLE3=Wie um ischten Daach - Wie um ischten Daach
TTITLE4=Gedanken - Gedanken
TTITLE5=Kniedelsdaach - Kniedelsdaach
TTITLE6=De Kuab un de Fuchs - De Kuab un de Fuchs
TTITLE7=Mengen - Trom
TTITLE8=Soh mir wiesu - Soh mir wiesu
TTITLE9=Un meng Mam - Un meng Mam
TTITLE10=Et - schneit
EXTD=YEAR: 2005
EXTT0=
EXTT1=
EXTT2=
EXTT3=
EXTT4=
EXTT5=
EXTT6=
EXTT7=
EXTT8=
EXTT9=
EXTT10=
PLAYORDER=
